<svg xmlns="http://www.w3.org/2000/svg" viewBox="0 0 310.88 192.13">
  <defs>
    <style>.cls-1{fill:none;stroke:#000;stroke-linecap:round;stroke-linejoin:round;stroke-width:8.88px;}</style>
  </defs>
  <title>Asset 3</title>
  <g id="Layer_2" data-name="Layer 2">
    <g id="icon">
      <path class="cls-1"
            d="M262,182.66C155.44,169.79,102.15,197,4.44,184.14V50.89c97.71,12.87,151-14.33,257.59-1.48Z"/>
      <path class="cls-1" d="M24.43,32.05c102.13,12.87,157.66-15.17,255.36-2.33v135"/>
      <path class="cls-1" d="M51.07,12.15C153.21,25,199.85-5.15,306.44,7.7V146.9"/>
      <path class="cls-1" d="M59.16,165.49c-11.42,0-22.64-.46-33.95-1.38"/>
      <path class="cls-1" d="M202.19,68.07c11.42,0,22.66.45,34,1.36"/>
      <path class="cls-1"
            d="M138.11,99.81c0-7-5.5-10.68-12.52-10.68S112.9,92.79,112.9,99.81s4.24,8.45,12.69,12.67,12.69,5.69,12.69,12.69-5.67,10.58-12.69,10.58-12.69-3.57-12.69-10.58"/>
      <line class="cls-1" x1="125.6" y1="75.84" x2="125.6" y2="84.73"/>
      <line class="cls-1" x1="125.6" y1="138.02" x2="125.6" y2="146.9"/>
    </g>
  </g>
</svg>